<?xml version="1.0" encoding="utf-8"?>
<!-- Generator: Adobe Illustrator 24.0.2, SVG Export Plug-In . SVG Version: 6.00 Build 0)  -->
<svg version="1.1" id="Capa_1" xmlns="http://www.w3.org/2000/svg" xmlns:xlink="http://www.w3.org/1999/xlink" x="0px" y="0px"
	 viewBox="0 0 480 480" style="enable-background:new 0 0 480 480;" xml:space="preserve">
<style type="text/css">
	.st0{fill:url(#SVGID_1_);}
</style>
<g>
	<g>
		<linearGradient id="SVGID_1_" gradientUnits="userSpaceOnUse" x1="16" y1="240" x2="464" y2="240">
			<stop  offset="0" style="stop-color:#4567F4"/>
			<stop  offset="1" style="stop-color:#3CD3AD"/>
		</linearGradient>
		<path class="st0" d="M386.8,323.5l-70-14c-7.4-1.5-12.8-8.1-12.8-15.7v-16.1c4.6-6.4,8.9-14.9,13.4-23.9
			c3.4-6.8,8.6-16.9,10.9-19.3c13.6-13.3,28-29.8,32.4-51.2c4-19.5,0-29.6-4.6-37.6c0-15.6,0-44.3-5.4-64.9
			c-0.5-24.9-5.1-39-16.6-51.6c-8.1-8.8-20.1-10.8-29.7-12.4c-3.8-0.6-9-1.5-10.8-2.5C276.9,5.1,260,0.5,239.4,0
			C197.2,1.6,145.3,28.4,128,76.5c-5.3,14.6-4.8,38.6-4.4,57.9l-0.4,11.2c-4.1,8-8.1,18.1-4,37.5c4.4,21.6,18.9,38,32.4,51.2
			c2.3,2.4,7.6,12.7,11,19.4c4.5,8.9,8.9,17.4,13.5,23.8v16c0,7.6-5.4,14.2-12.9,15.7l-70,14C48.4,332.4,16,372,16,417.6V448
			c0,17.6,14.4,32,32,32h384c17.6,0,32-14.4,32-32v-30.4C464,372,431.6,332.4,386.8,323.5z M432,448H48v-30.4
			c0-30.4,21.6-56.8,51.5-62.8l70-14c22.4-4.4,38.6-24.2,38.6-47V272c0-4.3-1.7-8.4-4.8-11.4c-2.8-2.7-8.7-14.3-12.2-21.3
			c-6-11.8-11.2-22-17.1-27.7c-10.6-10.4-20.8-21.8-23.5-34.8c-2.1-10.1-0.6-13,1.2-16.6c1.6-3.2,4.1-8,4.1-14.5l-0.2-11.9
			c-0.3-14-0.8-37.4,2.5-46.4C170.5,53,209.9,33.2,239.6,32c14.7,0.4,26.2,3.4,38.4,10.2c6.6,3.6,14.3,4.9,21,6.1
			c3.8,0.6,10.2,1.7,11.5,2.6c4.3,4.7,7.9,10.4,8.2,32.4c0,1.4,0.2,2.9,0.6,4.3c4.8,16.4,4.8,44.6,4.8,58.1c0,6.5,2.5,11.3,4.1,14.5
			c1.9,3.6,3.3,6.5,1.2,16.6c-2.7,13-12.9,24.4-23.5,34.8c-6,5.8-11.1,16-17.1,27.8c-3.5,6.9-9.3,18.5-12,21.2
			c-3.1,3-4.8,7.1-4.8,11.4v21.8c0,22.8,16.2,42.6,38.6,47.1l70,14c29.8,5.9,51.4,32.3,51.4,62.7L432,448L432,448z"/>
	</g>
</g>
</svg>
