<svg id="Layer_1" data-name="Layer 1" xmlns="http://www.w3.org/2000/svg" viewBox="0 0 145 145"><defs><style>.cls-1{fill:red;}</style></defs><polygon points="36.75 44.8 36.75 34.4 47.1 34.4 47.1 29.4 31.75 29.4 31.75 44.8 36.75 44.8"/><polygon points="98.39 34.4 108.75 34.4 108.75 44.8 113.75 44.8 113.75 29.4 98.39 29.4 98.39 34.4"/><polygon points="47.1 91.4 36.75 91.4 36.75 81 31.75 81 31.75 96.4 47.1 96.4 47.1 91.4"/><polygon points="108.75 81 108.75 91.4 98.39 91.4 98.39 96.4 113.75 96.4 113.75 81 108.75 81"/><path d="M327.63,521.33c2-21.23,19.81-21.89,21.95-21.89s19.91.66,21.95,21.89h5c-1.81-21.1-17.48-26.89-27-26.89s-25.16,5.79-27,26.89Z" transform="translate(-277.08 -462.57)"/><path d="M349.58,462.57a72.5,72.5,0,1,0,72.5,72.5A72.5,72.5,0,0,0,349.58,462.57Zm39.36,127.29a67.3,67.3,0,0,1-78.72,0V588.2a19.9,19.9,0,0,1,19.88-19.88h4.84a7.23,7.23,0,0,0,6.92-5.17c3.14,1.87,5.95,2.77,7.72,2.77s4.58-.9,7.72-2.76a7.23,7.23,0,0,0,6.92,5.16h4.84a19.9,19.9,0,0,1,19.88,19.88Zm4.89-3.88a24.9,24.9,0,0,0-24.77-22.66h-4.84a2.22,2.22,0,0,1-2.22-2.21v-1.32c6.76-5.74,13.55-15.68,14.58-30.46h-5c-1.73,22.9-18.44,31.59-22,31.59s-20.27-8.69-22-31.59h-5c1,14.78,7.82,24.72,14.58,30.45v1.33a2.22,2.22,0,0,1-2.22,2.21H330.1A24.9,24.9,0,0,0,305.33,586a67.5,67.5,0,1,1,88.5,0Z" transform="translate(-277.08 -462.57)"/><path class="cls-1" d="M395.76,521.13a4.18,4.18,0,0,0-3.68,2.2h-85a4.2,4.2,0,1,0,0,4h85a4.2,4.2,0,1,0,3.68-6.2Z" transform="translate(-277.08 -462.57)"/></svg>