<svg xmlns="http://www.w3.org/2000/svg" viewBox="0 0 495.36 145"><defs><style>.cls-1{fill:#4567f4;}.cls-2{fill:red;}</style></defs><g id="Layer_2" data-name="Layer 2"><g id="Layer_1-2" data-name="Layer 1"><path class="cls-1" d="M31.75,44.8V29.4H47.1v5H36.75V44.8ZM98.39,34.4h10.36V44.8h5V29.4H98.39ZM47.1,91.4H36.75V81h-5V96.4H47.1ZM108.75,81V91.4H98.39v5h15.36V81Z"/><path class="cls-1" d="M45.53,58.76c1.81-21.1,17.48-26.89,27-26.89s25.16,5.79,27,26.89h-5c-2-21.24-19.81-21.89-22-21.89s-19.91.65-22,21.89ZM145,72.5A72.5,72.5,0,1,1,72.5,0,72.5,72.5,0,0,1,145,72.5Zm-33.14,53.12A19.9,19.9,0,0,0,92,105.74H87.14a7.23,7.23,0,0,1-6.92-5.16c-3.14,1.87-6,2.77-7.72,2.77s-4.58-.9-7.72-2.77a7.23,7.23,0,0,1-6.92,5.16H53a19.9,19.9,0,0,0-19.88,19.88v1.67a67.3,67.3,0,0,0,78.72,0ZM140,72.5A67.5,67.5,0,1,0,28.25,123.4,24.9,24.9,0,0,1,53,100.74h4.84a2.22,2.22,0,0,0,2.22-2.21V97.21C53.32,91.47,46.53,81.54,45.5,66.76h5c1.73,22.89,18.44,31.59,22,31.59s20.27-8.7,22-31.59h5c-1,14.78-7.82,24.71-14.58,30.45v1.32a2.22,2.22,0,0,0,2.22,2.21H92a24.9,24.9,0,0,1,24.77,22.66A67.32,67.32,0,0,0,140,72.5Z"/><path class="cls-2" d="M118.68,58.55A4.19,4.19,0,0,0,115,60.76H30a4.2,4.2,0,1,0,0,4h85a4.2,4.2,0,1,0,3.68-6.21Z"/><path class="cls-1" d="M166,72.91l4.14-4.84a22.94,22.94,0,0,0,16.19,7c7.57,0,12.06-3.78,12.06-9.32,0-5.9-4.23-7.75-9.59-10.12l-8.36-3.7c-5.37-2.29-11.62-6.34-11.62-14.87,0-8.8,7.66-15.31,18.13-15.31a24.07,24.07,0,0,1,17.07,7L200,33.58a18.73,18.73,0,0,0-13-5.37c-6.43,0-10.65,3.25-10.65,8.36,0,5.54,5,7.65,9.5,9.5l8.28,3.61C200.76,52.5,206,56.54,206,65.08c0,9.15-7.56,16.45-19.71,16.45A27.1,27.1,0,0,1,166,72.91Zm47.35-13.73c0-14.34,9.59-22.52,20.59-22.52a17.43,17.43,0,0,1,12.5,5l-3.61,4.58a12.14,12.14,0,0,0-8.54-3.52c-7.74,0-13.37,6.6-13.37,16.45S226.2,75.46,234,75.46a15.24,15.24,0,0,0,10-4l3.17,4.66a20.42,20.42,0,0,1-13.82,5.45C222.06,81.53,213.35,73.35,213.35,59.18Zm39.77,10.21c0-9.5,7.92-14.08,26.23-16.1-.09-5.37-1.85-10.56-8.8-10.56-4.93,0-9.42,2.2-12.76,4.4L255,42.2c4-2.64,9.94-5.54,16.81-5.54,10.38,0,14.87,7,14.87,17.51V80.48h-6L280,75.37h-.26c-4.05,3.44-8.71,6.16-14.08,6.16C258.49,81.53,253.12,77.14,253.12,69.39Zm26.23.71V58.48c-14.44,1.67-19.1,4.93-19.1,10.47,0,4.75,3.26,6.6,7.39,6.6S275.21,73.7,279.35,70.1Zm20.77-32.39h6l.62,6.16H307c4-4,8.45-7.21,14.34-7.21,9.07,0,13.12,5.8,13.12,16.72v27.1h-7.31V54.34c0-8-2.46-11.35-8.1-11.35-4.31,0-7.39,2.2-11.61,6.51v31h-7.3Zm48.13,0h6l.61,6.16h.26c4.05-4,8.45-7.21,14.35-7.21,9.06,0,13.11,5.8,13.11,16.72v27.1h-7.3V54.34c0-8-2.47-11.35-8.1-11.35-4.31,0-7.39,2.2-11.61,6.51v31h-7.31Zm45,21.39c0-13.91,9.42-22.44,19.18-22.44,10.91,0,17.16,7.74,17.16,20.06a22.87,22.87,0,0,1-.35,4.31H400.44c.61,8.8,6,14.61,14.08,14.61a18.79,18.79,0,0,0,10.73-3.17l2.55,4.67a23.66,23.66,0,0,1-14.17,4.39C402.2,81.53,393.22,73.26,393.22,59.1Zm29.83-3.7c0-8.45-4-12.94-10.47-12.94-6,0-11.26,4.76-12.14,12.94Zm17-17.69h6l.61,7.75h.27c3-5.37,7.39-8.8,12.14-8.8a10.06,10.06,0,0,1,4.58.88L462,43.78a12.54,12.54,0,0,0-3.87-.52c-3.61,0-7.92,2.55-10.82,9.76V80.48H440Zm52.81,43.56a2.4,2.4,0,1,1,2.52-2.4A2.42,2.42,0,0,1,492.84,81.27Zm-3-9.48c-4.32,0-6.4-3.6-7.32-11.92-2.44,0-4.8.84-4.8,4a10.83,10.83,0,0,0,2,5.8L477.48,71A14.09,14.09,0,0,1,475,63.31c0-4.72,3.16-6.76,8-6.76h12v2.72l-2.32.32v.12a10.05,10.05,0,0,1,2.8,6.4C495.36,69.35,493.36,71.79,489.84,71.79Zm.32-11.92h-5.28c.76,6.56,2.24,8.68,4.76,8.68,2.16,0,3-1.48,3-3.36S491.8,61.75,490.16,59.87Zm3-7.4-15-10.2v9.08h-2.68V38.07h1.76l15,10.2V37.71h2.72V52.47Z"/><path class="cls-1" d="M166,100.14a47,47,0,0,1,6.95-.52c4.69,0,8,1.09,10.25,3.15s3.57,5,3.57,9.09-1.28,7.51-3.65,9.83-6.27,3.65-11.18,3.65A54.87,54.87,0,0,1,166,125Zm3.27,22.38a20.64,20.64,0,0,0,3.3.19c7,0,10.78-3.91,10.78-10.74,0-6-3.34-9.76-10.25-9.76a18.35,18.35,0,0,0-3.83.34Z"/><path class="cls-1" d="M207.49,115.87c0,6.73-4.66,9.65-9.05,9.65-4.92,0-8.71-3.6-8.71-9.34,0-6.09,4-9.65,9-9.65C204,106.53,207.49,110.32,207.49,115.87Zm-14.42.19c0,4,2.29,7,5.52,7s5.52-3,5.52-7.06c0-3.08-1.54-7-5.44-7S193.07,112.61,193.07,116.06Z"/><path class="cls-1" d="M227.31,106.94c-.07,1.31-.15,2.78-.15,5v10.55c0,4.17-.82,6.72-2.59,8.3A9.64,9.64,0,0,1,218,133a11.75,11.75,0,0,1-6-1.5l.82-2.52a10.26,10.26,0,0,0,5.34,1.43c3.37,0,5.85-1.77,5.85-6.35v-2h-.07a6.52,6.52,0,0,1-5.78,3c-4.51,0-7.74-3.83-7.74-8.86,0-6.16,4-9.65,8.19-9.65a6,6,0,0,1,5.66,3.15h.08l.15-2.74Zm-3.42,7.17a4.81,4.81,0,0,0-4.8-5c-3.15,0-5.41,2.66-5.41,6.87,0,3.56,1.8,6.53,5.37,6.53a4.83,4.83,0,0,0,4.58-3.38,5.65,5.65,0,0,0,.26-1.76ZM216.42,99.5a2.76,2.76,0,0,0,2.71,2.6,2.67,2.67,0,0,0,2.7-2.6h1.95a4.66,4.66,0,1,1-9.31,0Z"/><path class="cls-1" d="M232.42,112.61c0-2.14,0-4-.15-5.67h2.89l.11,3.57h.15a5.45,5.45,0,0,1,5-4,3.37,3.37,0,0,1,.94.11v3.11a5.34,5.34,0,0,0-1.13-.11c-2.33,0-4,1.77-4.43,4.25a9.79,9.79,0,0,0-.15,1.53v9.69h-3.26Z"/><path class="cls-1" d="M259.9,120.15c0,1.88,0,3.53.15,5h-2.93l-.19-3h-.07a6.84,6.84,0,0,1-6,3.38c-2.85,0-6.27-1.57-6.27-8V106.94h3.3V117c0,3.46,1.05,5.78,4.06,5.78a4.64,4.64,0,0,0,4.65-4.69V106.94h3.31Z"/><path class="cls-1" d="M277,101.83a2.05,2.05,0,0,1-4.1,0A2,2,0,0,1,275,99.77,2,2,0,0,1,277,101.83Zm-3.68,23.28V106.94h3.3v18.17Z"/><path class="cls-1" d="M282.12,111.86c0-1.88,0-3.42-.15-4.92h2.93l.19,3h.07a6.7,6.7,0,0,1,6-3.41c2.51,0,6.42,1.5,6.42,7.73v10.85h-3.31V114.64c0-2.93-1.08-5.37-4.2-5.37a4.86,4.86,0,0,0-4.66,4.91v10.93h-3.3Z"/><path class="cls-1" d="M302.51,121.73a8.61,8.61,0,0,0,4.35,1.32c2.4,0,3.53-1.21,3.53-2.71s-.94-2.44-3.38-3.34c-3.27-1.16-4.81-3-4.81-5.14,0-2.93,2.37-5.33,6.28-5.33a9.07,9.07,0,0,1,4.46,1.12l-.82,2.41A7.1,7.1,0,0,0,308.4,109c-1.95,0-3,1.13-3,2.48s1.09,2.18,3.45,3.08c3.16,1.2,4.77,2.78,4.77,5.48,0,3.19-2.48,5.45-6.79,5.45a10.4,10.4,0,0,1-5.11-1.24Z"/><path class="cls-1" d="M327.89,125.11l-.27-2.29h-.11a6.76,6.76,0,0,1-5.56,2.7,5.17,5.17,0,0,1-5.55-5.21c0-4.4,3.9-6.8,10.92-6.76v-.38c0-1.5-.41-4.2-4.13-4.2a9,9,0,0,0-4.73,1.35l-.75-2.18a11.24,11.24,0,0,1,6-1.61c5.56,0,6.91,3.79,6.91,7.43v6.8a25.11,25.11,0,0,0,.3,4.35Zm-.49-9.27c-3.61-.08-7.7.56-7.7,4.09a2.92,2.92,0,0,0,3.12,3.15,4.53,4.53,0,0,0,4.39-3,3.53,3.53,0,0,0,.19-1.05Z"/><path class="cls-1" d="M335.92,111.86c0-1.88,0-3.42-.15-4.92h2.93l.18,3H339a6.69,6.69,0,0,1,6-3.41c2.51,0,6.42,1.5,6.42,7.73v10.85h-3.31V114.64c0-2.93-1.09-5.37-4.2-5.37a4.86,4.86,0,0,0-4.66,4.91v10.93h-3.3Z"/><path class="cls-1" d="M354.61,129.73a54.41,54.41,0,0,0,2.26-9l3.68-.38A46.11,46.11,0,0,1,357,129.5Z"/><path class="cls-1" d="M388.18,98.45v22c0,1.61,0,3.45.15,4.69h-3l-.15-3.15h-.07a6.74,6.74,0,0,1-6.2,3.56c-4.39,0-7.77-3.71-7.77-9.23,0-6.05,3.72-9.76,8.15-9.76a6.09,6.09,0,0,1,5.48,2.77h.07V98.45Zm-3.31,15.89a5.43,5.43,0,0,0-.15-1.39,4.85,4.85,0,0,0-4.77-3.83c-3.41,0-5.44,3-5.44,7,0,3.68,1.8,6.72,5.37,6.72a5,5,0,0,0,4.84-3.94,5.46,5.46,0,0,0,.15-1.43Z"/><path class="cls-1" d="M410.1,115.87c0,6.73-4.65,9.65-9.05,9.65-4.92,0-8.71-3.6-8.71-9.34,0-6.09,4-9.65,9-9.65C406.57,106.53,410.1,110.32,410.1,115.87Zm-14.42.19c0,4,2.29,7,5.52,7s5.52-3,5.52-7.06c0-3.08-1.54-7-5.44-7S395.68,112.61,395.68,116.06Z"/><path class="cls-1" d="M429.92,106.94c-.07,1.31-.15,2.78-.15,5v10.55c0,4.17-.82,6.72-2.59,8.3a9.64,9.64,0,0,1-6.61,2.18,11.78,11.78,0,0,1-6-1.5l.83-2.52a10.22,10.22,0,0,0,5.33,1.43c3.38,0,5.85-1.77,5.85-6.35v-2h-.07a6.51,6.51,0,0,1-5.78,3c-4.51,0-7.74-3.83-7.74-8.86,0-6.16,4-9.65,8.19-9.65a6.05,6.05,0,0,1,5.67,3.15h.07l.15-2.74Zm-3.41,7.17a4.71,4.71,0,0,0-.19-1.5,4.76,4.76,0,0,0-4.62-3.49c-3.15,0-5.41,2.66-5.41,6.87,0,3.56,1.81,6.53,5.37,6.53a4.83,4.83,0,0,0,4.58-3.38,5.66,5.66,0,0,0,.27-1.76ZM419,99.5a2.74,2.74,0,0,0,2.7,2.6,2.67,2.67,0,0,0,2.7-2.6h1.95a4.66,4.66,0,1,1-9.31,0Z"/><path class="cls-1" d="M435,112.61c0-2.14,0-4-.15-5.67h2.89l.11,3.57H438a5.46,5.46,0,0,1,5-4,3.37,3.37,0,0,1,.94.11v3.11a5.27,5.27,0,0,0-1.13-.11c-2.32,0-4,1.77-4.43,4.25a9.79,9.79,0,0,0-.15,1.53v9.69H435Z"/><path class="cls-1" d="M462.51,120.15c0,1.88,0,3.53.15,5h-2.93l-.19-3h-.07a6.84,6.84,0,0,1-6,3.38c-2.85,0-6.27-1.57-6.27-8V106.94h3.3V117c0,3.46,1.06,5.78,4.06,5.78a4.79,4.79,0,0,0,4.36-3,5,5,0,0,0,.3-1.69V106.94h3.3Z"/><path class="cls-1" d="M479.63,101.83a2,2,0,0,1-4.09,0,2,2,0,0,1,2.06-2.06A2,2,0,0,1,479.63,101.83ZM476,125.11V106.94h3.3v18.17Z"/><path class="cls-1" d="M493.89,110.06a7,7,0,0,0-3.71-1.06c-2,0-3,1.13-3,2.48s1.08,2.18,3.45,3.08c3.15,1.2,4.77,2.78,4.77,5.48s-1.73,4.7-4.84,5.26L489.46,127a2.79,2.79,0,0,1,2.63,2.59c0,2.21-1.8,3-3.9,3a5.45,5.45,0,0,1-2.56-.64l.57-1.61a4,4,0,0,0,2,.56c.83,0,1.62-.3,1.62-1.2s-1.17-1.43-2.93-1.58l1.5-2.66a10.3,10.3,0,0,1-5-1.24l.82-2.52a8.68,8.68,0,0,0,4.36,1.32c2.4,0,3.53-1.21,3.53-2.71s-.94-2.44-3.38-3.34c-3.27-1.16-4.81-3-4.81-5.14,0-2.93,2.37-5.33,6.27-5.33a9.08,9.08,0,0,1,4.47,1.12Z"/></g></g></svg>