<?xml version="1.0" encoding="utf-8"?>
<!-- Generator: Adobe Illustrator 24.0.2, SVG Export Plug-In . SVG Version: 6.00 Build 0)  -->
<svg version="1.1" id="Layer_1" xmlns="http://www.w3.org/2000/svg" xmlns:xlink="http://www.w3.org/1999/xlink" x="0px" y="0px"
	 viewBox="0 0 512 512" style="enable-background:new 0 0 512 512;" xml:space="preserve">
<style type="text/css">
	.st0{fill:url(#SVGID_1_);}
</style>
<linearGradient id="SVGID_1_" gradientUnits="userSpaceOnUse" x1="3.876102e-06" y1="255.9995" x2="512" y2="255.9995">
	<stop  offset="0" style="stop-color:#FFFFFF"/>
	<stop  offset="0" style="stop-color:#4567F4"/>
	<stop  offset="1" style="stop-color:#3CD3AD"/>
	<stop  offset="1" style="stop-color:#A8A8A8"/>
	<stop  offset="1" style="stop-color:#A2A2A2"/>
</linearGradient>
<path class="st0" d="M461,116.1H350.7V71.7c0-21.2-17.2-38.4-38.4-38.4H199.7c-21.2,0-38.4,17.2-38.4,38.4v44.5H51
	c-28.1,0-51,22.9-51,51v260.7c0,28.1,22.9,51,51,51H461c28.1,0,51-22.9,51-51V167.1C512,139,489.1,116.1,461,116.1L461,116.1z
	 M193.8,71.7c0-3.2,2.6-5.9,5.9-5.9h112.6c3.2,0,5.9,2.6,5.9,5.9v44.5H193.8V71.7z M32.5,167.1c0-10.2,8.3-18.5,18.5-18.5H461
	c10.2,0,18.5,8.3,18.5,18.5v24.1c0,22.6-15.1,42.7-36.8,49l-170,49.5c-10.9,3.2-22.4,3.2-33.3,0l-170-49.5
	c-21.7-6.3-36.8-26.5-36.8-49L32.5,167.1z M461,446.2H51c-10.2,0-18.5-8.3-18.5-18.5V257.3c8.2,6.3,17.5,11.1,27.7,14.1
	c187.8,54.7,178.2,53.2,195.8,53.2c17.8,0,7.7,1.6,195.8-53.2c10.2-3,19.5-7.7,27.7-14.1v170.4C479.5,437.9,471.2,446.2,461,446.2
	L461,446.2z"/>
</svg>
